<svg xmlns="http://www.w3.org/2000/svg" enable-background="new 0 0 256 256" viewBox="0 0 256 256"
    id="adobe-illustrator-folder">
    <path fill="#ff9a00"
        d="M105.7,24.1H28c-11,0-20,9-20,20v20h146L119.8,30C116.1,26.3,111,24.1,105.7,24.1z"></path>
    <path fill="#300"
        d="M228,232.1H28c-11,0-20-9-20-20v-152h220c11,0,20,9,20,20v132C248,223.2,239,232.1,228,232.1z"></path>
    <path fill="#ff9a00"
        d="M166.9 110c-2.4.1-4.7-.8-6.5-2.4-3.3-3.8-3.3-9.4.1-13.1 1.8-1.7 4.1-2.6 6.5-2.5 2.4-.1 4.8.8 6.5 2.5 1.7 1.8 2.5 4.2 2.4 6.6.1 2.4-.8 4.8-2.5 6.5C171.7 109.2 169.4 110.1 166.9 110zM127.2 154h-26.1l-6.7 21c-.1.6-.5 1-1.2 1H80.9c-.8 0-1.1-.4-.9-1.2l23.9-71.6c.7-2.1 1-4.3 1-6.5-.1-.3.2-.7.5-.7.1 0 .1 0 .2 0h16.9c.5 0 .8.2.8.6l26.5 78.3c.2.7 0 1.1-.6 1.1h-13.7c-.5 0-1-.3-1.2-.7L127.2 154zM104.1 142h20.3L114 108 104.1 142zM160 174.9V117c-.1-.5.3-.9.7-1 .1 0 .2 0 .3 0h12c.5-.1.9.3 1 .7 0 .1 0 .2 0 .3v58c.1.5-.3.9-.7 1-.1 0-.2 0-.3 0h-11.9c-.5.1-1.1-.3-1.1-.9C160 175 160 175 160 174.9z"></path>
</svg>