<svg xmlns="http://www.w3.org/2000/svg" enable-background="new 0 0 256 256" viewBox="0 0 256 256"
    id="adobe-xd-folder">
    <path fill="#ff61f6"
        d="M105.7,24.1H28c-11,0-20,9-20,20v20h146L119.8,30C116.1,26.3,111,24.1,105.7,24.1z"></path>
    <path fill="#470137"
        d="M228,232.1H28c-11,0-20-9-20-20v-152h220c11,0,20,9,20,20v132C248,223.2,239,232.1,228,232.1z"></path>
    <path fill="#ff61f6"
        d="M132.1 95.2l-21.6 37.6 23.3 40c.5.8.3 1.2-.6 1.2h-14.6c-.7.1-1.5-.3-1.8-1l-16.4-30.4h-.1l-16 30.4c-.3.6-.9 1-1.6 1h-14c-.8 0-1-.4-.5-1.2l22.9-38.9L69.4 95c-.5-.7-.3-1 .5-1h14.6c.6 0 1.2.3 1.6.8l15.4 30.1h.1l15.3-30.1c.3-.6.9-.9 1.6-.8h13.3C132.5 94 132.7 94.4 132.1 95.2zM164.2 176c-8.6 0-15.2-2.4-20.4-7.3s-7.7-12-7.7-21.4c0-8.6 2.8-15.7 8.3-21.2 5.7-5.9 13.7-9.2 21.9-9 1.8 0 3.6.2 5.4.6v-25c0-.3.2-.6.5-.7.1 0 .1 0 .2 0H186c.4 0 .6.2.6.7v69.8c0 2.9 1.3 5.5 1.5 7.6.1.4-.2.8-.6 1C180.7 174.4 172 176 164.2 176zM171.7 164.6V129c-.5-.9-3-1.6-5.7-1.6-4.4-.1-8.6 1.7-11.4 5-3.4 4-5.3 9.1-5.2 14.3 0 6.5 2.2 10.9 5.1 13.9 2.8 3.2 6.8 5 11 5C168.3 165.7 171 165.3 171.7 164.6z"></path>
</svg>