<svg xmlns="http://www.w3.org/2000/svg" viewBox="0 0 32 32" id="dropbox" fill="white">
    <path
        d="m28.53 17.4-4.64-2.9 4.64-2.9a1 1 0 0 0 0-1.7l-6-3.75a1 1 0 0 0-1.06 0L16 9.57l-5.47-3.42a1 1 0 0 0-1.06 0l-6 3.75a1 1 0 0 0 0 1.7l4.64 2.9-4.64 2.9a1 1 0 0 0 0 1.7l6 3.75a1 1 0 0 0 1.06 0L16 19.43l5.47 3.42a1 1 0 0 0 1.06 0l6-3.75a1 1 0 0 0 0-1.7zM16 17.07l-4.11-2.57L16 11.93l4.11 2.57zm6-8.89 4.11 2.57L22 13.32l-4.11-2.57zm-12 0 4.11 2.57L10 13.32l-4.11-2.57zm0 12.64-4.11-2.57L10 15.68l4.11 2.57zm12 0-4.11-2.57L22 15.68l4.11 2.57zm-2.51 2.92L16 25.83l-3.49-2.09a1 1 0 0 0-1 1.72l4 2.4a1 1 0 0 0 1 0l4-2.4a1 1 0 1 0-1-1.72z"></path>
</svg>