<svg xmlns="http://www.w3.org/2000/svg" enable-background="new 0 0 256 256" viewBox="0 0 256 256"
  id="psd">
  <path fill="#31a8ff"
    d="M105.7,24.1H28c-11,0-20,9-20,20v20h146L119.8,30C116.1,26.3,111,24.1,105.7,24.1z"></path>
  <path fill="#001e36"
    d="M228,232.1H28c-11,0-20-9-20-20v-152h220c11,0,20,9,20,20v132C248,223.2,239,232.1,228,232.1z"></path>
  <path fill="#31a8ff"
    d="M78 175.2V97.4c-.1-.4.2-.7.6-.8.1 0 .1 0 .2 0C84.5 96.5 91.2 96 100 96c10.3 0 17.9 2.2 22.8 6.9 4.8 4.6 7.4 10.9 7.2 17.5 0 8.6-3 15-9 19.2s-13.5 6.3-22.6 6.3L92 146v29.1c0 .6-.2.9-.8.9H78.9C78.3 176 78 175.7 78 175.2zM92 107.2v28.1c2.4-.2 4.7-.2 7.1-.1 5 0 9.1-1.1 12.2-3.4s4.7-5.9 4.7-11c0-4.5-1.4-8-4.1-10.4s-6.7-3.7-11.8-3.7c-1.3 0-2.5 0-3.8 0s-2.2.1-3 .1S91.9 106.8 92 107.2L92 107.2zM178 157.6c.1 4.9-2 9.6-5.7 12.7l0 0c-.3.3-.7.6-1.1.9-3.9 3.1-9.2 4.7-15.9 4.7s-12.2-1.2-16.5-3.7c-.5-.2-.8-.7-.7-1.2v-10.7c0-.2.1-.5.3-.6s.4-.1.5.1c4.5 3.5 10.1 5.5 15.9 5.5 2.1.1 4.3-.4 6.1-1.4 1.3-.8 2.1-2.2 2.1-3.7s-.6-3-1.7-4.1c-1.1-1.1-3.4-2.3-6.7-3.6-6.1-2.4-10.3-4.9-12.7-7.6-2.5-2.7-3.9-6.3-3.8-10 0-4.7 2.1-9.1 5.6-12.2 3.6-3.2 8.7-4.8 15.3-4.8 6.2 0 11.2.8 14.5 2.5.4.2.6.7.6 1.5v9.5c0 .9-.3 1.1-1 .7-4.1-2.6-8.8-4-13.6-4-2.7 0-4.6.5-5.9 1.5-1.2.8-1.9 2.1-1.9 3.6 0 1.4.6 2.7 1.6 3.6 1.1 1 3.3 2.2 6.7 3.6 6 2.3 10.3 4.8 12.9 7.3l.1.1C175.5 150.2 178 153.6 178 157.6z"></path>
</svg>